HIERARCHY
ROOT Hips
{
 OFFSET 0.000000 0.000000 0.000000
 CHANNELS 6 Xposition Yposition Zposition Yrotation Xrotation Zrotation
 JOINT Chest
 {
  OFFSET 0.000000 9.588913 -0.003946
  CHANNELS 3 Yrotation Xrotation Zrotation
  JOINT Chest2
  {
   OFFSET 0.000000 9.541882 0.008053
   CHANNELS 3 Yrotation Xrotation Zrotation
   JOINT Chest3
   {
    OFFSET 0.000000 9.501360 0.000000
    CHANNELS 3 Yrotation Xrotation Zrotation
    JOINT Chest4
    {
     OFFSET 0.000000 9.491660 0.000000
     CHANNELS 3 Yrotation Xrotation Zrotation
     JOINT Neck
     {
      OFFSET 0.000000 14.331917 0.000000
      CHANNELS 3 Yrotation Xrotation Zrotation
      JOINT Head
      {
       OFFSET 0.000000 8.884799 0.017034
       CHANNELS 3 Yrotation Xrotation Zrotation
       End Site
       {
        OFFSET 0.000000 16.896195 0.008993
       }
      }
     }
     JOINT RightCollar
     {
      OFFSET -2.923010 9.499495 0.000000
      CHANNELS 3 Yrotation Xrotation Zrotation
      JOINT RightShoulder
      {
       OFFSET -13.795216 0.000000 0.000000
       CHANNELS 3 Yrotation Xrotation Zrotation
       JOINT RightElbow
       {
        OFFSET -30.272209 0.000000 0.000000
        CHANNELS 3 Yrotation Xrotation Zrotation
        JOINT RightWrist
        {
         OFFSET -24.478199 0.000000 0.000000
         CHANNELS 3 Yrotation Xrotation Zrotation
         End Site
         {
          OFFSET -18.090752 0.000000 0.000000
         }
        }
       }
      }
     }
     JOINT LeftCollar
     {
      OFFSET 2.923010 9.499495 0.000000
      CHANNELS 3 Yrotation Xrotation Zrotation
      JOINT LeftShoulder
      {
       OFFSET 13.795216 0.000000 0.000000
       CHANNELS 3 Yrotation Xrotation Zrotation
       JOINT LeftElbow
       {
        OFFSET 30.272209 0.000000 0.000000
        CHANNELS 3 Yrotation Xrotation Zrotation
        JOINT LeftWrist
        {
         OFFSET 24.478199 0.000000 0.000000
         CHANNELS 3 Yrotation Xrotation Zrotation
         End Site
         {
          OFFSET 18.090752 0.000000 0.000000
         }
        }
       }
      }
     }
    }
   }
  }
 }
 JOINT RightHip
 {
  OFFSET -7.826875 0.019532 0.001973
  CHANNELS 3 Yrotation Xrotation Zrotation
  JOINT RightKnee
  {
   OFFSET 0.000000 -40.546152 -0.001885
   CHANNELS 3 Yrotation Xrotation Zrotation
   JOINT RightAnkle
   {
    OFFSET 0.000000 -39.417092 -0.003189
    CHANNELS 3 Yrotation Xrotation Zrotation
    JOINT RightToe
    {
     OFFSET 0.000000 -7.579396 17.243563
     CHANNELS 3 Yrotation Xrotation Zrotation
     End Site
     {
      OFFSET 0.000000 -1.500329 6.694466
     }
    }
   }
  }
 }
 JOINT LeftHip
 {
  OFFSET 7.826875 0.019532 0.001973
  CHANNELS 3 Yrotation Xrotation Zrotation
  JOINT LeftKnee
  {
   OFFSET 0.000000 -40.546152 -0.001885
   CHANNELS 3 Yrotation Xrotation Zrotation
   JOINT LeftAnkle
   {
    OFFSET 0.000000 -39.417092 -0.003189
    CHANNELS 3 Yrotation Xrotation Zrotation
    JOINT LeftToe
    {
     OFFSET 0.000000 -7.579396 17.243563
     CHANNELS 3 Yrotation Xrotation Zrotation
     End Site
     {
      OFFSET 0.000000 -1.500329 6.694466
     }
    }
   }
  }
 }
}
MOTION
Frames: 13
Frame Time: 0.008333
0.000000 87.345680 0.000000 0.000000 -5.767889 0.000000 0.000000 11.653876 0.000000 0.000000 -5.885988 0.000000 0.000000 -0.000000 0.000000 0.000000 -0.000000 0.000000 0.000000 12.528808 0.000000 0.000000 0.711711 0.000000 0.000000 -0.000000 0.000000 0.000000 -0.000000 0.000000 2.309063 -0.000000 0.000000 -2.309063 -0.000000 -0.000000 0.000000 -0.000000 0.000000 0.000000 0.000000 0.000000 -2.309063 0.000000 0.000000 2.309063 -0.000000 0.000000 0.000000 8.520374 0.000000 0.000000 1.905768 0.000000 -0.000000 -4.658254 0.000000 0.000000 -0.000000 0.000000 0.000000 8.520374 0.000000 0.000000 1.905768 0.000000 -0.000000 -4.658254 0.000000 0.000000 -0.000000 0.000000
-11.787144 54.997165 -21.860983 45.405064 -19.864877 -2.718542 -2.911727 16.907697 -0.188196 -1.675731 9.663194 -0.236224 -2.108602 12.077575 -0.341464 -1.675731 9.663194 -0.236224 -4.982512 33.223857 -12.351827 -3.023249 13.060195 -13.133004 13.541950 -7.609483 -11.249750 27.071194 -25.625154 53.929474 64.317428 -9.352309 12.439364 8.408660 -3.909922 -13.207788 1.141710 -14.230068 0.917567 -29.319385 -25.732145 -39.546131 -79.008351 -3.365399 -38.516986 -1.369357 3.168048 6.266359 -28.185980 -55.037046 19.893106 -96.317747 77.834335 -109.451591 -7.438285 -15.839168 6.210837 -0.163862 0.498641 -0.075748 11.014241 -57.817066 -20.458919 108.490515 73.831260 121.479190 -4.697586 -17.143026 -5.201675 -0.083217 -0.551181 -0.060004
-11.787836 54.996788 -21.860995 45.404402 -19.858566 -2.725085 -2.913658 16.907382 -0.190609 -1.676726 9.663409 -0.237375 -2.109882 12.077837 -0.342937 -1.676726 9.663409 -0.237375 -4.990171 33.232685 -12.356081 -3.031596 13.073074 -13.136951 13.552647 -7.597822 -11.252854 27.105985 -25.666602 53.980372 64.333690 -9.230109 12.358911 8.442930 -3.889751 -13.248323 1.120029 -14.222333 0.922832 -29.322324 -25.721584 -39.498228 -79.017538 -3.409300 -38.526967 -1.343161 3.169580 6.284287 -28.204158 -55.038229 19.902217 -96.309346 77.837296 -109.439197 -7.429255 -15.843001 6.208308 -0.169771 0.500547 -0.079659 11.015416 -57.822090 -20.458956 108.488319 73.834990 121.485202 -4.699569 -17.138483 -5.195216 -0.084257 -0.550348 -0.061002
-11.788812 54.996004 -21.861075 45.403010 -19.850759 -2.730800 -2.913265 16.905883 -0.192564 -1.676858 9.663837 -0.238322 -2.110075 12.078368 -0.344131 -1.676858 9.663837 -0.238322 -4.999170 33.239694 -12.359490 -3.041576 13.083267 -13.139478 13.549830 -7.583143 -11.249261 27.141030 -25.715265 54.040849 64.351895 -9.082158 12.264184 8.500362 -3.867427 -13.284746 1.095916 -14.214482 0.929149 -29.326472 -25.709932 -39.450440 -79.027376 -3.457244 -38.536045 -1.310664 3.173285 6.304129 -28.219840 -55.041736 19.909909 -96.299551 77.840864 -109.425000 -7.419655 -15.845842 6.207466 -0.176277 0.502773 -0.084321 11.016232 -57.828309 -20.458165 108.489871 73.842516 121.495196 -4.703279 -17.134583 -5.188029 -0.085031 -0.549574 -0.062450
-11.790569 54.994676 -21.860888 45.401223 -19.841226 -2.738053 -2.909797 16.903893 -0.190250 -1.676821 9.664541 -0.239013 -2.110047 12.079245 -0.344999 -1.676821 9.664541 -0.239013 -5.009171 33.243840 -12.364001 -3.052383 13.089581 -13.142944 13.532414 -7.569097 -11.242233 27.170352 -25.769588 54.116202 64.367115 -8.933639 12.169869 8.570500 -3.846193 -13.307938 1.072004 -14.208522 0.935740 -29.329980 -25.697148 -39.407993 -79.041107 -3.504236 -38.543763 -1.274502 3.176436 6.325833 -28.234760 -55.047027 19.920978 -96.285375 77.842742 -109.405086 -7.411182 -15.845985 6.206571 -0.180775 0.504677 -0.087680 11.008016 -57.839200 -20.449853 108.504786 73.852508 121.516921 -4.704470 -17.129339 -5.184871 -0.084223 -0.550598 -0.062272
-11.797739 54.992543 -21.857459 45.363311 -19.824974 -2.765645 -2.860880 16.895978 -0.150687 -1.676830 9.665249 -0.239151 -2.110065 12.080130 -0.345176 -1.676830 9.665249 -0.239151 -5.019971 33.245225 -12.370758 -3.063563 13.092321 -13.148782 13.510814 -7.555716 -11.239295 27.179710 -25.828356 54.210599 64.378000 -8.800347 12.091395 8.638220 -3.827869 -13.317385 1.045997 -14.202270 0.945320 -29.328382 -25.685610 -39.373715 -79.060653 -3.543002 -38.548853 -1.238981 3.177629 6.349104 -28.259245 -55.044635 19.990001 -96.270403 77.839418 -109.383619 -7.374953 -15.880883 6.212022 -0.215435 0.538528 -0.103272 10.980978 -57.868202 -20.382834 108.533044 73.863295 121.550851 -4.682921 -17.083993 -5.181359 -0.104653 -0.589233 -0.070312
-11.800626 54.990065 -21.856377 45.366663 -19.816679 -2.774381 -2.858450 16.897222 -0.143832 -1.676423 9.666020 -0.238473 -2.109537 12.081096 -0.344319 -1.676423 9.666020 -0.238473 -5.031321 33.243527 -12.378753 -3.075015 13.090897 -13.155811 13.490970 -7.541639 -11.241650 27.164095 -25.889972 54.317523 64.386687 -8.690189 12.034076 8.686810 -3.808459 -13.314846 1.016056 -14.196317 0.956661 -29.323065 -25.673142 -39.343557 -79.088277 -3.571488 -38.547757 -1.206745 3.176420 6.369369 -28.272292 -55.048535 20.002925 -96.253650 77.831898 -109.361253 -7.371253 -15.883440 6.214397 -0.219543 0.543345 -0.104959 10.966108 -57.883955 -20.376062 108.574783 73.875755 121.599646 -4.674451 -17.069167 -5.182187 -0.106223 -0.598322 -0.070276
-11.804227 54.986894 -21.854992 45.372932 -19.808084 -2.782956 -2.859488 16.899951 -0.137489 -1.675642 9.666984 -0.237416 -2.108531 12.082307 -0.342977 -1.675642 9.666984 -0.237416 -5.042288 33.237836 -12.388380 -3.085548 13.084099 -13.164661 13.474761 -7.524621 -11.246572 27.134000 -25.950796 54.425658 64.394533 -8.605847 11.988360 8.714380 -3.784332 -13.315529 0.992216 -14.192531 0.963464 -29.324109 -25.658678 -39.313065 -79.122555 -3.594782 -38.542184 -1.176176 3.174138 6.385500 -28.287385 -55.053386 20.018040 -96.251402 77.825612 -109.355621 -7.372116 -15.887044 6.218476 -0.223786 0.548089 -0.106305 10.952701 -57.900910 -20.373784 108.621587 73.890315 121.655521 -4.663122 -17.052320 -5.183332 -0.105472 -0.608226 -0.070931
-11.808640 54.983098 -21.853106 45.381823 -19.799676 -2.792407 -2.864833 16.905355 -0.130948 -1.674946 9.668024 -0.236418 -2.107634 12.083613 -0.341711 -1.674946 9.668024 -0.236418 -5.052100 33.227850 -12.400977 -3.094005 13.071701 -13.177099 13.464227 -7.505900 -11.253093 27.100618 -26.002201 54.531289 64.407675 -8.537266 11.936646 8.736169 -3.762089 -13.328832 0.979809 -14.191889 0.966654 -29.333835 -25.644551 -39.284199 -79.161072 -3.618329 -38.534925 -1.142719 3.171364 6.401957 -28.304606 -55.058642 20.035819 -96.273463 77.822848 -109.375399 -7.377366 -15.892421 6.220805 -0.223328 0.552154 -0.104981 10.936957 -57.917642 -20.371017 108.672649 73.908473 121.717710 -4.650857 -17.037298 -5.184490 -0.101176 -0.616075 -0.072204
-11.814103 54.978602 -21.851051 45.392511 -19.788632 -2.802375 -2.871447 16.911160 -0.124458 -1.674329 9.669264 -0.235258 -2.106831 12.085168 -0.340246 -1.674329 9.669264 -0.235258 -5.061654 33.213764 -12.415954 -3.101540 13.053884 -13.192225 13.455681 -7.492573 -11.258598 27.067261 -26.032760 54.633016 64.439628 -8.468376 11.876725 8.763763 -3.749951 -13.350053 0.974383 -14.194884 0.970598 -29.347675 -25.631742 -39.257400 -79.200289 -3.644201 -38.526470 -1.108854 3.169596 6.418522 -28.324865 -55.065917 20.057748 -96.297440 77.819780 -109.397023 -7.385473 -15.899582 6.221745 -0.219996 0.557593 -0.102206 10.921845 -57.936792 -20.370370 108.725498 73.929595 121.783934 -4.637541 -17.023844 -5.184041 -0.096450 -0.621739 -0.074917
-11.815798 54.973463 -21.852651 45.440911 -19.776798 -2.789173 -2.922954 16.918101 -0.156323 -1.673210 9.671120 -0.234046 -2.105400 12.087495 -0.338705 -1.673211 9.671120 -0.234046 -5.071039 33.196409 -12.431609 -3.108617 13.031584 -13.208018 13.446389 -7.488129 -11.262605 27.031525 -26.039428 54.727635 64.493541 -8.399780 11.810960 8.794929 -3.750874 -13.369057 0.972585 -14.199777 0.977462 -29.364702 -25.622339 -39.228827 -79.236559 -3.673707 -38.520484 -1.081537 3.170148 6.433301 -28.332775 -55.090214 20.023232 -96.314344 77.814927 -109.411149 -7.421762 -15.871549 6.217218 -0.187024 0.532388 -0.085868 10.929930 -57.949948 -20.438286 108.768983 73.949110 121.841919 -4.644515 -17.042738 -5.185656 -0.072906 -0.593165 -0.069183
-11.822547 54.967747 -21.851387 45.449926 -19.757045 -2.792414 -2.927065 16.916896 -0.155625 -1.671190 9.673503 -0.233426 -2.102853 12.090478 -0.337885 -1.671190 9.673503 -0.233426 -5.079270 33.177543 -12.447078 -3.114340 13.007162 -13.223755 13.432840 -7.488162 -11.266894 26.992762 -26.029560 54.812417 64.562408 -8.343984 11.739430 8.819996 -3.765986 -13.372847 0.964715 -14.203727 0.989921 -29.377271 -25.616640 -39.198832 -79.270875 -3.709653 -38.519568 -1.058363 3.171744 6.449819 -28.346264 -55.110486 20.040961 -96.330048 77.810015 -109.423735 -7.425331 -15.876441 6.218393 -0.187975 0.537881 -0.084014 10.929538 -57.980202 -20.452114 108.805981 73.964012 121.891155 -4.639684 -17.020920 -5.183774 -0.071019 -0.602007 -0.070233
-11.829009 54.962071 -21.849618 45.452404 -19.739708 -2.791795 -2.924794 16.918659 -0.155554 -1.668815 9.675591 -0.233673 -2.099886 12.093090 -0.338141 -1.668815 9.675591 -0.233673 -5.084913 33.158229 -12.462383 -3.117099 12.982129 -13.239843 13.414638 -7.488723 -11.271911 26.951030 -26.009595 54.883673 64.642017 -8.309391 11.677718 8.834243 -3.791726 -13.360258 0.947699 -14.204861 1.006514 -29.382006 -25.610622 -39.166057 -79.305065 -3.753576 -38.520981 -1.036203 3.173653 6.469293 -28.350351 -55.130932 20.054735 -96.345913 77.804935 -109.437965 -7.425815 -15.878297 6.220820 -0.191376 0.541500 -0.083422 10.931181 -58.007762 -20.461438 108.844413 73.973559 121.936372 -4.636470 -17.004271 -5.184257 -0.070343 -0.608232 -0.068166
